<?xml version="1.0" encoding="UTF-8" standalone="no"?> <!-- Created with Vectornator for iOS (http://vectornator.io/) --><!DOCTYPE svg PUBLIC "-//W3C//DTD SVG 1.1//EN" "http://www.w3.org/Graphics/SVG/1.1/DTD/svg11.dtd">
<svg style="fill-rule:evenodd;clip-rule:evenodd;stroke-linecap:round;stroke-linejoin:round;" xmlns:vectornator="http://vectornator.io" xmlns:xlink="http://www.w3.org/1999/xlink" xmlns="http://www.w3.org/2000/svg" xml:space="preserve" version="1.1" viewBox="0 0 1024 1024">
<metadata>
<vectornator:setting key="DimensionsVisible" value="1"/>
<vectornator:setting key="SnapToGrid" value="0"/>
<vectornator:setting key="SnapToPoints" value="0"/>
<vectornator:setting key="GuidesVisible" value="1"/>
<vectornator:setting key="RulersVisible" value="1"/>
<vectornator:setting key="CMYKEnabledKey" value="0"/>
<vectornator:setting key="SnapToEdges" value="0"/>
<vectornator:setting key="DisplayWhiteBackground" value="0"/>
<vectornator:setting key="SnapToGuides" value="1"/>
<vectornator:setting key="GridSpacing" value="36"/>
<vectornator:setting key="Units" value="Pixels"/>
<vectornator:setting key="DynamicGuides" value="0"/>
<vectornator:setting key="New" value="1"/>
</metadata>
<defs/>
<g id="Layer 1" vectornator:layerName="Layer 1">
<path stroke="#000000" stroke-width="1" d="M880.345+629.257" fill="#ffffff" stroke-linecap="butt" opacity="1" stroke-linejoin="round"/>
<g opacity="1">
<path d="M375.339+393.349L375.339+395.4L369.539+395.4L369.539+410.564L367.171+410.564L367.171+395.4L361.371+395.4L361.371+393.349L375.339+393.349Z" opacity="1" fill="#ffffff"/>
</g>
<g opacity="1">
<path d="M374.814+403.076L374.814+405.127L369.013+405.127L369.013+420.291L366.646+420.291L366.646+405.127L360.845+405.127L360.845+403.076L374.814+403.076Z" opacity="1" fill="#ffffff"/>
<path d="M367.232+435.059C368.122+435.059+368.985+435.268+369.821+435.686C370.657+436.104+371.294+436.645+371.732+437.309C372.153+437.942+372.435+438.68+372.575+439.524C372.7+440.102+372.763+441.024+372.763+442.289L363.564+442.289C363.603+443.563+363.903+444.584+364.466+445.354C365.028+446.123+365.9+446.508+367.079+446.508C368.181+446.508+369.06+446.145+369.716+445.418C370.091+444.996+370.357+444.508+370.513+443.953L372.587+443.953C372.532+444.414+372.351+444.928+372.042+445.494C371.733+446.061+371.388+446.524+371.005+446.883C370.364+447.508+369.571+447.93+368.626+448.149C368.118+448.274+367.544+448.336+366.903+448.336C365.341+448.336+364.017+447.768+362.931+446.631C361.845+445.494+361.302+443.903+361.302+441.856C361.302+439.84+361.849+438.203+362.942+436.946C364.036+435.688+365.466+435.059+367.232+435.059ZM370.595+440.614C370.509+439.699+370.31+438.969+369.997+438.422C369.419+437.406+368.454+436.899+367.103+436.899C366.134+436.899+365.321+437.248+364.665+437.947C364.009+438.647+363.661+439.535+363.622+440.614L370.595+440.614Z" opacity="1" fill="#ffffff"/>
<path d="M360.81+462.94L363.54+462.94L366.423+467.358L369.341+462.94L371.907+462.999L367.677+469.057L372.095+475.491L369.4+475.491L366.282+470.78L363.259+475.491L360.587+475.491L365.005+469.057L360.81+462.94Z" opacity="1" fill="#ffffff"/>
<path d="M362.427+487.036L364.56+487.036L364.56+490.54L366.564+490.54L366.564+492.263L364.56+492.263L364.56+500.454C364.56+500.892+364.708+501.185+365.005+501.333C365.169+501.419+365.442+501.462+365.825+501.462C365.927+501.462+366.036+501.46+366.153+501.456C366.271+501.452+366.407+501.442+366.564+501.427L366.564+503.091C366.321+503.161+366.069+503.212+365.808+503.243C365.546+503.274+365.263+503.29+364.958+503.29C363.974+503.29+363.306+503.038+362.954+502.534C362.603+502.03+362.427+501.376+362.427+500.571L362.427+492.263L360.728+492.263L360.728+490.54L362.427+490.54L362.427+487.036Z" opacity="1" fill="#ffffff"/>
</g>
<path d="M300.846+332.662L330.126+332.662C332.104+332.662+333.707+334.265+333.707+336.242L333.707+364.886C333.707+366.864+332.104+368.467+330.126+368.467L300.846+368.467C298.869+368.467+297.265+366.864+297.265+364.886L297.265+336.242C297.265+334.265+298.869+332.662+300.846+332.662Z" opacity="1" fill="#e6f7ff"/>
<g opacity="1">
<path d="M360.091+327.625L360.091+329.676L354.291+329.676L354.291+344.84L351.924+344.84L351.924+329.676L346.123+329.676L346.123+327.625L360.091+327.625Z" opacity="1" fill="#ffffff"/>
<path d="M352.509+359.608C353.4+359.608+354.263+359.817+355.099+360.235C355.935+360.653+356.572+361.194+357.009+361.858C357.431+362.491+357.713+363.229+357.853+364.073C357.978+364.651+358.041+365.573+358.041+366.839L348.841+366.839C348.881+368.112+349.181+369.133+349.744+369.903C350.306+370.673+351.177+371.057+352.357+371.057C353.459+371.057+354.338+370.694+354.994+369.967C355.369+369.546+355.634+369.057+355.791+368.503L357.865+368.503C357.81+368.964+357.629+369.477+357.32+370.044C357.011+370.61+356.666+371.073+356.283+371.432C355.642+372.057+354.849+372.479+353.904+372.698C353.396+372.823+352.822+372.885+352.181+372.885C350.619+372.885+349.295+372.317+348.209+371.18C347.123+370.044+346.58+368.452+346.58+366.405C346.58+364.389+347.127+362.753+348.22+361.495C349.314+360.237+350.744+359.608+352.509+359.608ZM355.873+365.163C355.787+364.249+355.588+363.518+355.275+362.971C354.697+361.956+353.732+361.448+352.381+361.448C351.412+361.448+350.599+361.798+349.943+362.497C349.287+363.196+348.939+364.085+348.9+365.163L355.873+365.163Z" opacity="1" fill="#ffffff"/>
<path d="M346.088+387.489L348.818+387.489L351.701+391.907L354.619+387.489L357.185+387.548L352.955+393.606L357.373+400.04L354.677+400.04L351.56+395.329L348.537+400.04L345.865+400.04L350.283+393.606L346.088+387.489Z" opacity="1" fill="#ffffff"/>
<path d="M347.705+411.585L349.838+411.585L349.838+415.089L351.841+415.089L351.841+416.812L349.838+416.812L349.838+425.003C349.838+425.441+349.986+425.734+350.283+425.882C350.447+425.968+350.72+426.011+351.103+426.011C351.205+426.011+351.314+426.009+351.431+426.005C351.549+426.001+351.685+425.992+351.841+425.976L351.841+427.64C351.599+427.71+351.347+427.761+351.086+427.792C350.824+427.824+350.541+427.839+350.236+427.839C349.252+427.839+348.584+427.587+348.232+427.083C347.881+426.58+347.705+425.925+347.705+425.121L347.705+416.812L346.006+416.812L346.006+415.089L347.705+415.089L347.705+411.585Z" opacity="1" fill="#ffffff"/>
</g>
<g opacity="1">
<path d="M313.502+359.825L313.502+342.737L320.798+342.737L320.798+345.041L315.95+345.041L315.95+350.057L320.174+350.057L320.174+352.361L315.95+352.361L315.95+357.377L320.798+357.377L320.798+359.825L313.502+359.825Z" opacity="1" fill="#c2e8ff"/>
</g>
<g opacity="1">
<path d="M325.71+359.825L325.71+345.041L322.878+345.041L322.878+342.737L330.99+342.737L330.99+345.041L328.158+345.041L328.158+359.825L325.71+359.825Z" opacity="1" fill="#ffeea3"/>
</g>
<g opacity="1">
<path d="M305.347+349.775C303.237+349.775+301.52+348.081+301.52+346C301.52+343.918+303.237+342.224+305.347+342.224C307.457+342.224+309.173+343.918+309.173+346C309.173+348.081+307.457+349.775+305.347+349.775Z" opacity="1" fill="#ffeea3"/>
</g>
<g opacity="1">
<path d="M305.025+359.903C302.263+359.903+300.016+357.758+300.016+355.122C300.016+352.486+302.263+350.341+305.025+350.341C307.786+350.341+310.033+352.486+310.033+355.122C310.033+357.758+307.786+359.903+305.025+359.903Z" opacity="1" fill="#c2e8ff"/>
</g>
<g opacity="1">
<path d="M306.011+359.947C303.249+359.947+301.002+357.803+301.002+355.167C301.002+352.53+303.249+350.386+306.011+350.386C308.772+350.386+311.019+352.53+311.019+355.167C311.019+357.803+308.772+359.947+306.011+359.947Z" opacity="1" fill="#c2e8ff"/>
</g>
<g opacity="1">
<path d="M306.186+359.923C303.425+359.923+301.178+357.778+301.178+355.142C301.178+352.506+303.425+350.361+306.186+350.361C308.948+350.361+311.195+352.506+311.195+355.142C311.195+357.778+308.948+359.923+306.186+359.923Z" opacity="1" fill="#c2e8ff"/>
</g>
<g opacity="1">
<path d="M306.445+359.875C303.684+359.875+301.437+357.73+301.437+355.094C301.437+352.458+303.684+350.313+306.445+350.313C309.207+350.313+311.454+352.458+311.454+355.094C311.454+357.73+309.207+359.875+306.445+359.875Z" opacity="1" fill="#c2e8ff"/>
</g>
</g>
</svg>
